<svg xmlns="http://www.w3.org/2000/svg" version="1.1" xmlns:xlink="http://www.w3.org/1999/xlink" xmlns:svgjs="http://svgjs.dev/svgjs" width="2530" height="560" preserveAspectRatio="none" viewBox="0 0 2530 560"><g mask="url(&quot;#SvgjsMask1090&quot;)" fill="none"><rect width="2530" height="560" x="0" y="0" fill="url(&quot;#SvgjsLinearGradient1091&quot;)"></rect><path d="M2530 0L1712.8400000000001 0L2530 132.55z" fill="rgba(255, 255, 255, .1)"></path><path d="M1712.8400000000001 0L2530 132.55L2530 275.1L1563.3100000000002 0z" fill="rgba(255, 255, 255, .075)"></path><path d="M1563.31 0L2530 275.1L2530 315.08000000000004L601.7099999999999 0z" fill="rgba(255, 255, 255, .05)"></path><path d="M601.71 0L2530 315.08000000000004L2530 467.21000000000004L271.83000000000004 0z" fill="rgba(255, 255, 255, .025)"></path><path d="M0 560L932.66 560L0 438.84000000000003z" fill="rgba(0, 0, 0, .1)"></path><path d="M0 438.84000000000003L932.66 560L1231.52 560L0 401.08000000000004z" fill="rgba(0, 0, 0, .075)"></path><path d="M0 401.08000000000004L1231.52 560L1443.11 560L0 285.6700000000001z" fill="rgba(0, 0, 0, .05)"></path><path d="M0 285.67L1443.11 560L1950.61 560L0 249.46z" fill="rgba(0, 0, 0, .025)"></path></g><defs><mask id="SvgjsMask1090"><rect width="2530" height="560" fill="#ffffff"></rect></mask><linearGradient x1="19.47%" y1="-87.95%" x2="80.53%" y2="187.95%" gradientUnits="userSpaceOnUse" id="SvgjsLinearGradient1091"><stop stop-color="#0e2a47" offset="0"></stop><stop stop-color="rgba(36, 126, 241, 1)" offset="1"></stop></linearGradient></defs></svg>