<svg id="visual" viewBox="0 0 900 600" width="900" height="600" xmlns="http://www.w3.org/2000/svg" xmlns:xlink="http://www.w3.org/1999/xlink" version="1.1"><path d="M0 277L13.7 253C27.3 229 54.7 181 82 169C109.3 157 136.7 181 163.8 193C191 205 218 205 245.2 187C272.3 169 299.7 133 327 119C354.3 105 381.7 113 409 143C436.3 173 463.7 225 491 225C518.3 225 545.7 173 573 169C600.3 165 627.7 209 654.8 206C682 203 709 153 736.2 147C763.3 141 790.7 179 818 176C845.3 173 872.7 129 886.3 107L900 85L900 0L886.3 0C872.7 0 845.3 0 818 0C790.7 0 763.3 0 736.2 0C709 0 682 0 654.8 0C627.7 0 600.3 0 573 0C545.7 0 518.3 0 491 0C463.7 0 436.3 0 409 0C381.7 0 354.3 0 327 0C299.7 0 272.3 0 245.2 0C218 0 191 0 163.8 0C136.7 0 109.3 0 82 0C54.7 0 27.3 0 13.7 0L0 0Z" fill="#6198ff"></path><path d="M0 355L13.7 329C27.3 303 54.7 251 82 234C109.3 217 136.7 235 163.8 243C191 251 218 249 245.2 245C272.3 241 299.7 235 327 226C354.3 217 381.7 205 409 223C436.3 241 463.7 289 491 290C518.3 291 545.7 245 573 253C600.3 261 627.7 323 654.8 318C682 313 709 241 736.2 223C763.3 205 790.7 241 818 246C845.3 251 872.7 225 886.3 212L900 199L900 83L886.3 105C872.7 127 845.3 171 818 174C790.7 177 763.3 139 736.2 145C709 151 682 201 654.8 204C627.7 207 600.3 163 573 167C545.7 171 518.3 223 491 223C463.7 223 436.3 171 409 141C381.7 111 354.3 103 327 117C299.7 131 272.3 167 245.2 185C218 203 191 203 163.8 191C136.7 179 109.3 155 82 167C54.7 179 27.3 227 13.7 251L0 275Z" fill="#3c80ff"></path><path d="M0 439L13.7 415C27.3 391 54.7 343 82 332C109.3 321 136.7 347 163.8 366C191 385 218 397 245.2 398C272.3 399 299.7 389 327 376C354.3 363 381.7 347 409 352C436.3 357 463.7 383 491 374C518.3 365 545.7 321 573 332C600.3 343 627.7 409 654.8 410C682 411 709 347 736.2 334C763.3 321 790.7 359 818 361C845.3 363 872.7 329 886.3 312L900 295L900 197L886.3 210C872.7 223 845.3 249 818 244C790.7 239 763.3 203 736.2 221C709 239 682 311 654.8 316C627.7 321 600.3 259 573 251C545.7 243 518.3 289 491 288C463.7 287 436.3 239 409 221C381.7 203 354.3 215 327 224C299.7 233 272.3 239 245.2 243C218 247 191 249 163.8 241C136.7 233 109.3 215 82 232C54.7 249 27.3 301 13.7 327L0 353Z" fill="#0066ff"></path><path d="M0 547L13.7 547C27.3 547 54.7 547 82 548C109.3 549 136.7 551 163.8 553C191 555 218 557 245.2 557C272.3 557 299.7 555 327 551C354.3 547 381.7 541 409 534C436.3 527 463.7 519 491 515C518.3 511 545.7 511 573 518C600.3 525 627.7 539 654.8 540C682 541 709 529 736.2 523C763.3 517 790.7 517 818 515C845.3 513 872.7 509 886.3 507L900 505L900 293L886.3 310C872.7 327 845.3 361 818 359C790.7 357 763.3 319 736.2 332C709 345 682 409 654.8 408C627.7 407 600.3 341 573 330C545.7 319 518.3 363 491 372C463.7 381 436.3 355 409 350C381.7 345 354.3 361 327 374C299.7 387 272.3 397 245.2 396C218 395 191 383 163.8 364C136.7 345 109.3 319 82 330C54.7 341 27.3 389 13.7 413L0 437Z" fill="#0059dd"></path><path d="M0 601L13.7 601C27.3 601 54.7 601 82 601C109.3 601 136.7 601 163.8 601C191 601 218 601 245.2 601C272.3 601 299.7 601 327 601C354.3 601 381.7 601 409 601C436.3 601 463.7 601 491 601C518.3 601 545.7 601 573 601C600.3 601 627.7 601 654.8 601C682 601 709 601 736.2 601C763.3 601 790.7 601 818 601C845.3 601 872.7 601 886.3 601L900 601L900 503L886.3 505C872.7 507 845.3 511 818 513C790.7 515 763.3 515 736.2 521C709 527 682 539 654.8 538C627.7 537 600.3 523 573 516C545.7 509 518.3 509 491 513C463.7 517 436.3 525 409 532C381.7 539 354.3 545 327 549C299.7 553 272.3 555 245.2 555C218 555 191 553 163.8 551C136.7 549 109.3 547 82 546C54.7 545 27.3 545 13.7 545L0 545Z" fill="#004cbb"></path></svg>